<svg width="56" height="56" fill="none" xmlns="http://www.w3.org/2000/svg"><path d="M26.549 45.596C16.513 45.036 10.36 41.64 5.3 34.827l2.961.834c-1.983-1.18-4.9-4.497-4.014-7.536l3.987 3.308c-1.741-2.689-3.87-5.714-3.365-9.426l3.386 2.564a13.55 13.55 0 0 1 2.287-5.227m37.032.713a8.536 8.536 0 0 1 1.307 5.55l1.468-4.555c1.224 2.245 1.206 4.223.186 8.251l1.211-1.941a6.451 6.451 0 0 1-1.467 5.128l1.638-1.534C50.444 42.172 41.587 45.68 29.668 45.68l17.906-25.623Z" stroke="#82B93C" stroke-linecap="round" stroke-linejoin="round"/><path d="m39.56 32.424 1.705 2.042.938-2.286-2.643.244Zm1.645 4.443c.677 1.128 1.013 1.224 2.406 1.028-.663.42-1.28.912-1.837 1.465-.927 1.112-.894 2.954-2.048 3.827-.3.207-.671.288-1.031.225a1.312 1.312 0 0 1-.9-.544c-.639-1.058-.028-2.48-.21-3.703-.106-.707-.513-2.085-.513-2.085 1.588 1.102 3.032 1.002 4.133-.212v-.001Zm-9.763-5.808c.58 0 1.052-.707 1.052-1.579 0-.871-.471-1.578-1.052-1.578-.582 0-1.053.707-1.053 1.578 0 .872.471 1.579 1.053 1.579Zm13.211.013c.465 0 .842-.612.842-1.367 0-.756-.377-1.368-.842-1.368-.465 0-.842.612-.842 1.367 0 .756.377 1.368.842 1.368ZM23.926 11.583c6.806-1.37 9.5-.942 14.018 1.056m-26.478-.523a12.469 12.469 0 0 1 2.196-7.111 18.31 18.31 0 0 1 6.08 2.589l-8.276 4.522Zm11.755-1.377c.683.822 1.293 1.7 1.826 2.625l-1.826-2.625Zm14.568 3.277c.316-1.27.786-2.496 1.4-3.651l-1.4 3.651Zm3.338-6.395a15.436 15.436 0 0 1 2.561-2.317 9.241 9.241 0 0 1 2.011 2.84l-4.572-.523Z" stroke="#82B93C" stroke-linecap="round" stroke-linejoin="round"/><path d="m12.39 15.92 4.21-6.312c2.825-4.239 22.22-5.56 28.285.505l5.26 5.261-2.104 2.104-5.26-5.26c-4.24-4.24-20.246-3.623-23.025.545l-4.209 6.313-3.157-3.156Z" stroke="#82B93C" stroke-linecap="round" stroke-linejoin="round"/><path d="M43.744 9.04c2.037-1.43 4.592-.77 6.026 1.553a7.247 7.247 0 0 1-.268 7.782 4.04 4.04 0 0 1-4.588 1.73 4.043 4.043 0 0 1-1.522-.847 6.986 6.986 0 0 1-1.644-7.507m-20.943.057a6.875 6.875 0 0 1 .924 8.353 6.155 6.155 0 0 1-7.623 2.582 6.691 6.691 0 0 1-3.899-7.346 6.413 6.413 0 0 1 6.102-5.449l4.496 1.86Z" stroke="#82B93C" stroke-linecap="round" stroke-linejoin="round"/><path d="M13.823 25.21a9.158 9.158 0 0 0-.012 2.31c.302 1.255 1.801 2.146 1.777 3.436-.057 2.974-4.116 4.802-4.399 7.762-.408 4.3 4.634 7.406 4.147 12.276m-1.922-28.5-.405 2.33 1.669.52 1.246-2.137-2.51-.714ZM30.593 36.79a7.891 7.891 0 1 0 0-15.782 7.891 7.891 0 0 0 0 15.783Zm-8.368 11.792-3.092 1.68m10.695-13.377-.24 2.357.24-2.357Zm-.023 1.559a1.564 1.564 0 0 0-1.645 1.209l-.158 1.77a1.38 1.38 0 0 0 .843 1.413 1.694 1.694 0 0 0 1.779-1.26l.217-1.475a1.583 1.583 0 0 0-1.036-1.657v0Zm-2.393 6.225-.832 1.31a1.206 1.206 0 0 0 .088 1.435 1.48 1.48 0 0 0 1.884-.264l.76-1.057a1.382 1.382 0 0 0-.15-1.71 1.365 1.365 0 0 0-1.75.286v0Zm-3.626 2.469-1.528.268c-.473.082-1.03.551-1.004 1.03a1.48 1.48 0 0 0 1.464 1.215l1.296-.15a1.382 1.382 0 0 0 1.162-1.26 1.365 1.365 0 0 0-1.39-1.103v0Zm-3.869 3.857a1.034 1.034 0 0 0-.366-1.194 1.421 1.421 0 0 0-1.762.199l-.875.994 3.003.001Zm9.218-8.876-.493 2.528.493-2.528Zm-1.925 4.76-2.765 1.325 2.765-1.325Z" stroke="#82B93C" stroke-linecap="round" stroke-linejoin="round"/></svg>