<svg width="70" height="39" fill="none" xmlns="http://www.w3.org/2000/svg"><path d="M22.436 21.888c0 1.825-.349 3.173-1.048 4.045-.699.872-1.645 1.308-2.839 1.308-.532 0-.977-.077-1.336-.232v-1.568c.36.248.817.372 1.373.372 1.516 0 2.273-1.309 2.273-3.925V12.63h1.577v9.26Zm2.719-1.902c0-2.307.624-4.15 1.874-5.529 1.255-1.38 2.95-2.069 5.084-2.069 1.979 0 3.572.674 4.778 2.023 1.212 1.348 1.818 3.086 1.818 5.214 0 2.294-.612 4.137-1.837 5.529-1.218 1.391-2.885 2.087-5 2.087-2.023 0-3.65-.677-4.88-2.032-1.225-1.354-1.837-3.095-1.837-5.223Zm1.66-.148c0 1.726.458 3.154 1.373 4.286.916 1.126 2.14 1.689 3.674 1.689 1.64 0 2.913-.532 3.823-1.596.915-1.07 1.373-2.52 1.373-4.351 0-1.893-.443-3.371-1.327-4.435-.878-1.064-2.125-1.596-3.739-1.596-1.57 0-2.826.57-3.766 1.707-.94 1.132-1.41 2.564-1.41 4.296ZM41.575 27V12.63h4.018c1.193 0 2.155.3 2.885.9.73.6 1.095 1.394 1.095 2.384 0 .804-.217 1.509-.65 2.115-.426.606-1.032 1.042-1.818 1.308v.037c.959.093 1.729.452 2.31 1.076.588.625.881 1.435.881 2.43 0 1.22-.439 2.212-1.317 2.979-.872.76-1.976 1.141-3.312 1.141h-4.091Zm1.578-12.905v4.722h1.744c.952 0 1.695-.225 2.227-.677.531-.457.797-1.095.797-1.911 0-1.422-.927-2.134-2.783-2.134h-1.985Zm0 6.179v5.26h2.328c.99 0 1.763-.235 2.32-.705.563-.476.844-1.132.844-1.967 0-1.725-1.181-2.588-3.544-2.588h-1.948Z" fill="#000"/><path d="M1 15C1 7.268 7.268 1 15 1h52a2 2 0 0 1 2 2v21c0 7.732-6.268 14-14 14H3a2 2 0 0 1-2-2V15Z" stroke="#F6B361" stroke-width="2"/></svg>